<svg xmlns="http://www.w3.org/2000/svg" width="980" height="980" viewBox="0 0 980 980" role="img" aria-labelledby="title desc">
  <title id="title">Social media collage training visual</title>
  <desc id="desc">A colorful social media collage placeholder for the local safety training page.</desc>
  <rect width="980" height="980" fill="transparent"/>
  <g filter="url(#shadow)">
    <rect x="405" y="92" width="360" height="610" rx="32" fill="#8bbce8"/>
    <rect x="405" y="92" width="360" height="610" rx="32" fill="url(#sky)"/>
    <rect x="432" y="118" width="300" height="7" rx="4" fill="#f7f9ff"/>
    <rect x="545" y="118" width="178" height="7" rx="4" fill="#d9e4ef"/>
    <circle cx="570" cy="352" r="122" fill="#f05d50"/>
    <circle cx="660" cy="386" r="100" fill="#323b55"/>
    <path d="M468 640c46-106 102-174 168-204 41 69 75 136 101 204z" fill="#d74e62"/>
    <path d="M430 436c53-40 103-68 151-84 62 51 110 108 144 172-58-37-115-53-171-48-54 5-96-8-124-40z" fill="#eb5f4d"/>
    <path d="M456 574c89 36 178 37 266 3" fill="none" stroke="#f8d1cc" stroke-width="18" stroke-linecap="round"/>
    <circle cx="534" cy="312" r="48" fill="#ffccaa"/>
    <path d="M488 285c37-42 87-38 130 8-25-7-50-8-76-2-26 5-44 4-54-6z" fill="#1f2233"/>
  </g>
  <g filter="url(#shadow)">
    <rect x="136" y="260" width="330" height="320" rx="26" fill="#f3f4f7"/>
    <rect x="210" y="350" width="190" height="120" rx="14" fill="#61758b"/>
    <path d="M210 350h190l30-60H240z" fill="#ff7642"/>
    <path d="M195 338l45-48h190l-30 60H210z" fill="#ffffff"/>
    <path d="M224 292h182" stroke="#ff7f46" stroke-width="12" stroke-linecap="round"/>
    <rect x="160" y="280" width="34" height="34" rx="8" fill="#ffffff"/>
    <rect x="168" y="300" width="18" height="12" rx="3" fill="#a0aab5"/>
  </g>
  <g filter="url(#shadow)">
    <rect x="215" y="520" width="270" height="385" rx="24" fill="#ffffff"/>
    <rect x="245" y="610" width="210" height="225" rx="12" fill="url(#party)"/>
    <circle cx="350" cy="725" r="54" fill="#26354f"/>
    <path d="M306 782c30-80 73-112 128-95 6 48-3 97-27 148h-93c-10-18-13-36-8-53z" fill="#202433"/>
    <path d="M320 680c30-45 65-47 104-6-34-9-68-7-104 6z" fill="#111827"/>
    <rect x="245" y="856" width="210" height="18" rx="9" fill="#e7ebf0"/>
    <rect x="245" y="890" width="155" height="17" rx="9" fill="#e7ebf0"/>
    <rect x="245" y="545" width="38" height="38" rx="10" fill="#1877f2"/>
    <path d="M264 555v18m-7-9h14" stroke="#ffffff" stroke-width="6" stroke-linecap="round"/>
  </g>
  <g filter="url(#shadow)">
    <circle cx="560" cy="845" r="108" fill="#1877f2"/>
    <circle cx="560" cy="845" r="94" fill="#ffffff"/>
    <circle cx="560" cy="845" r="82" fill="#88cf54"/>
    <circle cx="548" cy="822" r="44" fill="#f0b18e"/>
    <path d="M498 904c28-51 70-72 126-64 26 14 43 35 51 64z" fill="#f36f35"/>
    <path d="M503 808c26-52 77-57 129-28-38-4-77 5-116 27z" fill="#0aa3a1"/>
    <path d="M521 827c24 26 51 27 82 4" fill="none" stroke="#49352b" stroke-width="7" stroke-linecap="round"/>
  </g>
  <g>
    <circle cx="835" cy="635" r="55" fill="url(#heart)"/>
    <path d="M835 665c-45-27-58-50-45-71 13-20 35-16 45 4 10-20 32-24 45-4 13 21 0 44-45 71z" fill="#ffffff"/>
    <circle cx="122" cy="182" r="58" fill="url(#laugh)"/>
    <path d="M82 170c6-22 27-22 34-1m33 0c6-22 27-22 34-1" fill="none" stroke="#1f2937" stroke-width="8" stroke-linecap="round"/>
    <path d="M96 198c26 56 87 40 94-11-32-9-63-5-94 11z" fill="#7a1020"/>
    <path d="M118 226c22 14 45 8 58-10-18-9-38-6-58 10z" fill="#ff426f"/>
    <rect x="705" y="182" width="150" height="58" rx="14" fill="#6c63f0"/>
    <circle cx="738" cy="211" r="18" fill="#ffffff"/>
    <path d="M738 198v14l9 9" stroke="#6c63f0" stroke-width="5" stroke-linecap="round"/>
    <text x="765" y="221" fill="#ffffff" font-family="Arial, Helvetica, sans-serif" font-size="28" font-weight="700">16:45</text>
  </g>
  <defs>
    <filter id="shadow" x="-20%" y="-20%" width="140%" height="140%">
      <feDropShadow dx="0" dy="22" stdDeviation="18" flood-color="#0f172a" flood-opacity=".2"/>
    </filter>
    <linearGradient id="sky" x1="405" x2="765" y1="92" y2="702">
      <stop stop-color="#9cc9ef"/>
      <stop offset="1" stop-color="#de8aa0"/>
    </linearGradient>
    <linearGradient id="party" x1="245" x2="455" y1="610" y2="835">
      <stop stop-color="#b9f568"/>
      <stop offset=".45" stop-color="#e648d0"/>
      <stop offset="1" stop-color="#1ba7a4"/>
    </linearGradient>
    <linearGradient id="heart" x1="780" x2="890" y1="580" y2="690">
      <stop stop-color="#ff62a3"/>
      <stop offset="1" stop-color="#ff0f3c"/>
    </linearGradient>
    <radialGradient id="laugh" cx="35%" cy="30%" r="70%">
      <stop stop-color="#ffe66e"/>
      <stop offset="1" stop-color="#ff9f1c"/>
    </radialGradient>
  </defs>
</svg>
